<svg width="37" height="28" viewBox="0 0 37 28" fill="none" xmlns="http://www.w3.org/2000/svg">
    <path d="M30.7562 14.1365C31.2451 14.8837 32.0073 15.4094 32.8794 15.6007C33.7515 15.7921 34.6638 15.6338 35.4205 15.1599C36.1653 14.6711 36.6893 13.9103 36.8805 13.0401C37.0717 12.17 36.9149 11.2595 36.4438 10.5034C35.9549 9.75625 35.1926 9.23055 34.3205 9.03921C33.4485 8.84787 32.5362 9.00614 31.7795 9.48004C31.0347 9.96885 30.5107 10.7297 30.3195 11.5998C30.1283 12.47 30.285 13.3804 30.7562 14.1365Z" fill="#23B3E8"/>
    <path d="M0.559138 16.246C1.08705 17.0542 1.91034 17.6236 2.85279 17.8325C3.79524 18.0414 4.782 17.873 5.60192 17.3636C6.41262 16.8355 6.98382 16.0105 7.19279 15.0659C7.40175 14.1212 7.2318 13.1323 6.71944 12.3116C6.18996 11.5024 5.36432 10.9331 4.41976 10.7258C3.4752 10.5186 2.48704 10.69 1.66745 11.2032C0.860798 11.7326 0.293237 12.5565 0.0861289 13.4989C-0.12098 14.4412 0.0487889 15.4272 0.559138 16.246Z" fill="#F15832"/>
    <path d="M30.5788 3.62184L22.7512 20.5022C22.619 20.7748 22.4381 21.0207 22.2173 21.2276C21.9935 21.4359 21.7312 21.5983 21.4452 21.7056C21.158 21.8068 20.854 21.8515 20.5499 21.8375C20.2453 21.8281 19.946 21.7551 19.671 21.6232L19.2604 21.4336C18.9846 21.3039 18.7364 21.122 18.5293 20.8978C18.3241 20.6729 18.1651 20.4096 18.0612 20.1231C17.9578 19.8353 17.9104 19.5303 17.9215 19.2246C17.9388 18.9201 18.0112 18.6213 18.1351 18.3427L26.1188 1.14089C26.2266 0.906039 26.3796 0.694894 26.569 0.519601C26.7585 0.344309 26.9805 0.208325 27.2225 0.119468C27.4645 0.0306122 27.7216 -0.00936303 27.979 0.00184326C28.2364 0.0130495 28.4891 0.0752172 28.7225 0.184767L29.4618 0.530946C29.7381 0.65938 29.9865 0.841436 30.1924 1.06662C30.3983 1.2918 30.5578 1.55567 30.6616 1.84299C30.7655 2.13031 30.8116 2.43542 30.7974 2.74072C30.7832 3.04602 30.7089 3.34548 30.5788 3.62184Z" fill="#4DBD98"/>
    <path d="M21.0525 4.64165L11.2604 26.7149C11.1438 26.9771 10.9799 27.2131 10.7778 27.4098C10.5722 27.6093 10.3316 27.7648 10.0695 27.8677C9.80725 27.9647 9.52999 28.009 9.25216 27.9985C8.98311 27.9801 8.71942 27.9108 8.47377 27.7941L7.93669 27.5325C7.68669 27.407 7.46207 27.2322 7.27508 27.0174C7.08668 26.8036 6.94076 26.5525 6.84586 26.2788C6.75097 26.0051 6.709 25.7142 6.72241 25.4232C6.73468 25.1398 6.80084 24.8619 6.91701 24.6057L16.8414 2.18906C16.9376 1.96826 17.0747 1.76977 17.2447 1.60513C17.4146 1.44049 17.6141 1.313 17.8314 1.23008C18.0487 1.14715 18.2795 1.11045 18.5105 1.12211C18.7414 1.13376 18.9678 1.19354 19.1766 1.29796L20.0561 1.72307C20.5647 1.97168 20.9586 2.42211 21.1512 2.97546C21.3439 3.5288 21.3195 4.13982 21.0836 4.67435L21.0525 4.64165Z" fill="#F3E503"/>
</svg>
